<svg width="141" height="31" viewBox="0 0 141 31" fill="none" xmlns="http://www.w3.org/2000/svg">
<path d="M13.756 17.765H4.89098V14.69H13.756V17.765ZM8.86598 5.405H9.79598L3.58598 23H0.135977L7.62098 2H11.026L18.526 23H15.061L8.86598 5.405ZM24.6338 23.3C23.5338 23.3 22.5738 23.185 21.7538 22.955C20.9338 22.715 20.2088 22.44 19.5788 22.13L19.9088 19.145C20.5088 19.535 21.1938 19.885 21.9638 20.195C22.7338 20.495 23.5838 20.645 24.5138 20.645C25.3338 20.645 25.9588 20.515 26.3888 20.255C26.8188 19.985 27.0338 19.575 27.0338 19.025C27.0338 18.595 26.9088 18.245 26.6588 17.975C26.4088 17.695 26.0688 17.46 25.6388 17.27C25.2188 17.07 24.7438 16.88 24.2138 16.7C23.3838 16.42 22.6338 16.105 21.9638 15.755C21.2938 15.395 20.7588 14.935 20.3588 14.375C19.9688 13.815 19.7738 13.09 19.7738 12.2C19.7738 11.38 19.9838 10.64 20.4038 9.98C20.8238 9.31 21.4438 8.78 22.2638 8.39C23.0838 8 24.1038 7.805 25.3238 7.805C26.2838 7.805 27.1138 7.91 27.8138 8.12C28.5238 8.33 29.1638 8.59 29.7338 8.9L29.4038 11.825C28.8138 11.395 28.1988 11.04 27.5588 10.76C26.9188 10.47 26.1938 10.325 25.3838 10.325C24.6638 10.325 24.0938 10.465 23.6738 10.745C23.2638 11.025 23.0588 11.44 23.0588 11.99C23.0588 12.61 23.3188 13.065 23.8388 13.355C24.3588 13.645 25.1688 13.99 26.2688 14.39C26.8488 14.6 27.3888 14.83 27.8888 15.08C28.3888 15.33 28.8288 15.625 29.2088 15.965C29.5888 16.305 29.8838 16.71 30.0938 17.18C30.3038 17.65 30.4088 18.21 30.4088 18.86C30.4088 19.7 30.2088 20.455 29.8088 21.125C29.4088 21.795 28.7838 22.325 27.9338 22.715C27.0838 23.105 25.9838 23.3 24.6338 23.3ZM32.9714 23V0.499998H36.3164V14.435L41.2514 8.105H45.1214L39.5114 15.185L45.2564 23H41.3714L36.3164 16.04V23H32.9714ZM47.5754 23V2H60.7904V5.3H51.1154V10.385H58.6904V13.685H51.1154V19.7H61.0754V23H47.5754ZM62.4546 23L67.4796 15.56L62.4996 8.105H66.4146L69.5046 12.995L72.3396 8.105H76.3146L71.3796 15.485L76.3746 23H72.4446L69.3546 18.125L66.3846 23H62.4546ZM78.4702 30.26V8.105H81.1402L81.7852 10.91L80.7952 10.475C81.4652 9.675 82.2202 9.04 83.0602 8.57C83.9102 8.09 84.9452 7.85 86.1652 7.85C87.5952 7.85 88.8002 8.2 89.7802 8.9C90.7702 9.6 91.5202 10.535 92.0302 11.705C92.5402 12.875 92.7952 14.165 92.7952 15.575C92.7952 16.985 92.5452 18.275 92.0452 19.445C91.5452 20.615 90.8052 21.55 89.8252 22.25C88.8452 22.95 87.6252 23.3 86.1652 23.3C84.9952 23.3 84.0052 23.11 83.1952 22.73C82.3952 22.35 81.6802 21.76 81.0502 20.96L81.8152 20.285V30.26H78.4702ZM85.6252 20.48C86.8052 20.48 87.7252 20.035 88.3852 19.145C89.0452 18.245 89.3752 17.055 89.3752 15.575C89.3752 14.085 89.0452 12.895 88.3852 12.005C87.7252 11.115 86.8052 10.67 85.6252 10.67C84.7852 10.67 84.0652 10.87 83.4652 11.27C82.8752 11.66 82.4252 12.22 82.1152 12.95C81.8052 13.68 81.6502 14.555 81.6502 15.575C81.6502 16.615 81.8052 17.5 82.1152 18.23C82.4252 18.96 82.8752 19.52 83.4652 19.91C84.0652 20.29 84.7852 20.48 85.6252 20.48ZM102.632 23.3C100.852 23.3 99.3624 22.94 98.1624 22.22C96.9724 21.5 96.0724 20.55 95.4624 19.37C94.8624 18.18 94.5624 16.875 94.5624 15.455C94.5624 14.085 94.8424 12.825 95.4024 11.675C95.9724 10.515 96.7974 9.59 97.8774 8.9C98.9674 8.2 100.287 7.85 101.837 7.85C103.197 7.85 104.357 8.125 105.317 8.675C106.277 9.225 107.007 9.985 107.507 10.955C108.017 11.915 108.272 13.015 108.272 14.255C108.272 14.535 108.252 14.83 108.212 15.14C108.182 15.44 108.137 15.75 108.077 16.07H98.0274C98.1674 17.16 98.4724 18.025 98.9424 18.665C99.4124 19.305 99.9974 19.77 100.697 20.06C101.397 20.34 102.152 20.48 102.962 20.48C103.762 20.48 104.532 20.385 105.272 20.195C106.022 19.995 106.717 19.725 107.357 19.385L107.612 22.16C107.042 22.44 106.337 22.7 105.497 22.94C104.657 23.18 103.702 23.3 102.632 23.3ZM98.1774 13.79H104.852C104.852 13.25 104.747 12.745 104.537 12.275C104.337 11.795 104.012 11.41 103.562 11.12C103.122 10.82 102.542 10.67 101.822 10.67C100.772 10.67 99.9524 10.955 99.3624 11.525C98.7824 12.095 98.3874 12.85 98.1774 13.79ZM110.873 23V8.105H113.903L114.068 10.01C114.588 9.4 115.193 8.88 115.883 8.45C116.573 8.02 117.318 7.805 118.118 7.805C118.358 7.805 118.583 7.83 118.793 7.88L118.523 11.285C118.333 11.235 118.143 11.205 117.953 11.195C117.763 11.175 117.568 11.165 117.368 11.165C116.688 11.165 116.063 11.32 115.493 11.63C114.923 11.94 114.523 12.3 114.293 12.71V23H110.873ZM125.593 23.3C124.653 23.3 123.893 23.115 123.313 22.745C122.733 22.375 122.308 21.905 122.038 21.335C121.768 20.755 121.633 20.15 121.633 19.52V10.82H119.353L119.653 8.105H121.633V4.685L124.978 4.34V8.105H128.488V10.82H124.978V17.945C124.978 18.775 125.028 19.375 125.128 19.745C125.228 20.105 125.458 20.335 125.818 20.435C126.178 20.525 126.758 20.57 127.558 20.57H128.458L128.173 23.3H125.593ZM135.112 23.3C134.012 23.3 133.052 23.185 132.232 22.955C131.412 22.715 130.687 22.44 130.057 22.13L130.387 19.145C130.987 19.535 131.672 19.885 132.442 20.195C133.212 20.495 134.062 20.645 134.992 20.645C135.812 20.645 136.437 20.515 136.867 20.255C137.297 19.985 137.512 19.575 137.512 19.025C137.512 18.595 137.387 18.245 137.137 17.975C136.887 17.695 136.547 17.46 136.117 17.27C135.697 17.07 135.222 16.88 134.692 16.7C133.862 16.42 133.112 16.105 132.442 15.755C131.772 15.395 131.237 14.935 130.837 14.375C130.447 13.815 130.252 13.09 130.252 12.2C130.252 11.38 130.462 10.64 130.882 9.98C131.302 9.31 131.922 8.78 132.742 8.39C133.562 8 134.582 7.805 135.802 7.805C136.762 7.805 137.592 7.91 138.292 8.12C139.002 8.33 139.642 8.59 140.212 8.9L139.882 11.825C139.292 11.395 138.677 11.04 138.037 10.76C137.397 10.47 136.672 10.325 135.862 10.325C135.142 10.325 134.572 10.465 134.152 10.745C133.742 11.025 133.537 11.44 133.537 11.99C133.537 12.61 133.797 13.065 134.317 13.355C134.837 13.645 135.647 13.99 136.747 14.39C137.327 14.6 137.867 14.83 138.367 15.08C138.867 15.33 139.307 15.625 139.687 15.965C140.067 16.305 140.362 16.71 140.572 17.18C140.782 17.65 140.887 18.21 140.887 18.86C140.887 19.7 140.687 20.455 140.287 21.125C139.887 21.795 139.262 22.325 138.412 22.715C137.562 23.105 136.462 23.3 135.112 23.3Z" fill="white"/>
</svg>
